<svg width="15" height="11" viewBox="0 0 15 11" fill="none" xmlns="http://www.w3.org/2000/svg">
<path d="M3.84544 10.1431C5.84437 10.1431 7.15083 8.67969 7.15083 6.48686C7.15083 4.28018 5.84437 2.81676 3.84544 2.81676C1.8465 2.81676 0.540039 4.28018 0.540039 6.48686C0.540039 8.67969 1.8465 10.1431 3.84544 10.1431ZM3.85005 8.98438C2.54359 8.98438 1.93422 7.8441 1.93422 6.48224C1.93422 5.125 2.54359 3.97088 3.85005 3.97088C5.14728 3.97088 5.75666 5.125 5.75666 6.48224C5.75666 7.8441 5.14728 8.98438 3.85005 8.98438ZM8.69158 10H10.0719V7.48402L10.7598 6.79616L13.1696 10H14.8638L11.7985 5.95135L14.6699 2.90909H13.0172L10.1919 5.9098H10.0719V0.545454H8.69158V10Z" fill="#151515"/>
</svg>
